<svg width="116" height="38" viewBox="0 0 116 38" fill="none" xmlns="http://www.w3.org/2000/svg">
<g clip-path="url(#clip0_64_344)">
<path d="M16.1702 29.5106C16.1702 25.0454 12.5504 21.4255 8.08511 21.4255C3.61983 21.4255 0 25.0454 0 29.5106C0 33.9759 3.61983 37.5957 8.08511 37.5957C12.5504 37.5957 16.1702 33.9759 16.1702 29.5106Z" fill="#E8FF66"/>
<path d="M29.3692 16.4397H19.6064V0.380679H23.0494V14.4117L22.1768 13.1147H29.3692V16.4397ZM33.6403 10.2614H41.1864V13.4449H33.6403V10.2614ZM30.1266 16.4397L35.8334 0.380679H39.63L45.0538 16.4397H41.5637L37.1775 2.73884H38.3094L33.5931 16.4397H30.1266ZM46.5272 16.4397V0.380679H49.9701V16.4397H46.5272ZM55.3702 16.4397L48.7438 8.70497V8.16259L55.5825 0.380679H59.8507L52.3282 8.94079L52.4225 7.9032L59.8507 16.4397H55.3702ZM66.6231 16.8406C65.6956 16.8406 64.8231 16.7069 64.0055 16.4397C63.2038 16.1567 62.4805 15.7401 61.836 15.1899C61.2071 14.6239 60.6727 13.9007 60.2325 13.0204L62.9208 11.3461C63.3766 12.1007 63.9348 12.6745 64.5951 13.0676C65.2554 13.4606 65.9942 13.6571 66.8117 13.6571C67.5192 13.6571 68.0537 13.5078 68.4153 13.209C68.7768 12.9103 68.9577 12.5173 68.9577 12.03C68.9577 11.7156 68.8711 11.4483 68.6983 11.2282C68.541 10.9924 68.2502 10.7723 67.8257 10.5679C67.4013 10.3635 66.7882 10.167 65.9864 9.97838C64.6816 9.66396 63.644 9.27093 62.8736 8.7993C62.119 8.32767 61.5844 7.76956 61.2701 7.12501C60.9557 6.46472 60.7984 5.73369 60.7984 4.93192C60.7984 3.98866 61.0264 3.15545 61.4823 2.43228C61.9539 1.69339 62.622 1.11171 63.4867 0.687239C64.3514 0.262771 65.3811 0.0505371 66.5759 0.0505371C67.9279 0.0505371 69.0677 0.317796 69.9952 0.852311C70.9385 1.38683 71.6931 2.08641 72.2591 2.95107L69.5708 4.81401C69.1621 4.27949 68.6669 3.89433 68.0851 3.65852C67.5192 3.4227 66.9532 3.30479 66.3873 3.30479C65.7112 3.30479 65.1846 3.43843 64.8073 3.70568C64.4458 3.95722 64.2649 4.3188 64.2649 4.79043C64.2649 5.23063 64.4536 5.60006 64.8309 5.89877C65.2082 6.18174 65.947 6.449 67.0476 6.70054C68.3681 7.01495 69.4293 7.40013 70.2311 7.85603C71.0328 8.31194 71.6146 8.87004 71.9761 9.53032C72.3376 10.1906 72.5185 10.9845 72.5185 11.9121C72.5185 12.8553 72.2748 13.6964 71.7874 14.4353C71.3158 15.1741 70.6398 15.7637 69.7594 16.2039C68.8791 16.6284 67.8336 16.8406 66.6231 16.8406ZM84.2229 16.4397V0.380679H87.6658V16.4397H84.2229ZM74.5073 16.4397V0.380679H77.9502V16.4397H74.5073ZM76.7239 10.2378V6.91277H85.3784V10.2378H76.7239ZM96.7687 8.7993H95.1415L99.3862 0.380679H103.089L97.3818 11.3697L97.6176 9.38884V16.4397H94.1747V9.38884L94.4105 11.3697L88.7274 0.380679H92.5476L96.7687 8.7993ZM104.155 10.2614H111.701V13.4449H104.155V10.2614ZM100.641 16.4397L106.348 0.380679H110.144L115.568 16.4397H112.078L107.692 2.73884H108.824L104.108 16.4397H100.641Z" fill="#E4FFAA"/>
<path d="M19.6064 37.5957V21.5367H25.2189C26.8853 21.5367 28.3159 21.859 29.5107 22.5035C30.7212 23.1324 31.6488 24.0521 32.2933 25.2626C32.9536 26.4574 33.2837 27.8959 33.2837 29.578C33.2837 31.2759 32.9536 32.7222 32.2933 33.917C31.6488 35.1118 30.7212 36.0236 29.5107 36.6525C28.3002 37.2814 26.8618 37.5957 25.1953 37.5957H19.6064ZM23.0494 35.5677L21.6816 34.2707H24.9595C25.9185 34.2707 26.7517 34.1135 27.4591 33.7991C28.1823 33.469 28.7403 32.958 29.1334 32.2663C29.5421 31.5746 29.7465 30.6785 29.7465 29.578C29.7465 28.4932 29.55 27.605 29.157 26.9133C28.7639 26.2216 28.2059 25.7106 27.4827 25.3805C26.7752 25.0346 25.9421 24.8617 24.983 24.8617H21.5166L23.0494 23.8477V35.5677ZM37.5079 31.1815V27.9037H44.1108V31.1815H37.5079ZM37.4372 24.8145L38.6399 23.4232V35.7092L37.3193 34.3179H45.4078V37.5957H35.197V21.5367H45.4078V24.8145H37.4372ZM53.2664 37.9966C52.3389 37.9966 51.4663 37.8629 50.6488 37.5957C49.847 37.3127 49.1238 36.8961 48.4793 36.3459C47.8504 35.7799 47.316 35.0567 46.8758 34.1764L49.5641 32.5021C50.0199 33.2567 50.5781 33.8305 51.2383 34.2236C51.8986 34.6166 52.6375 34.8131 53.455 34.8131C54.1625 34.8131 54.697 34.6638 55.0586 34.3651C55.4201 34.0663 55.6009 33.6734 55.6009 33.186C55.6009 32.8716 55.5144 32.6043 55.3415 32.3842C55.1843 32.1484 54.8935 31.9283 54.469 31.7239C54.0446 31.5195 53.4314 31.323 52.6297 31.1344C51.3249 30.82 50.2873 30.4269 49.5169 29.9553C48.7623 29.4837 48.2277 28.9255 47.9133 28.281C47.599 27.6207 47.4417 26.8897 47.4417 26.0879C47.4417 25.1447 47.6697 24.3115 48.1256 23.5883C48.5972 22.8494 49.2653 22.2677 50.13 21.8432C50.9947 21.4188 52.0243 21.2065 53.2192 21.2065C54.5712 21.2065 55.711 21.4738 56.6385 22.0083C57.5818 22.5429 58.3364 23.2424 58.9024 24.1071L56.2141 25.97C55.8054 25.4355 55.3101 25.0503 54.7284 24.8145C54.1625 24.5787 53.5965 24.4608 53.0305 24.4608C52.3545 24.4608 51.8279 24.5945 51.4506 24.8617C51.089 25.1133 50.9082 25.4748 50.9082 25.9464C50.9082 26.3867 51.0969 26.756 51.4742 27.0548C51.8515 27.3377 52.5903 27.605 53.6908 27.8565C55.0114 28.1709 56.0726 28.5562 56.8743 29.012C57.6761 29.4679 58.2578 30.026 58.6194 30.6863C58.9809 31.3466 59.1617 32.1406 59.1617 33.0681C59.1617 34.0113 58.9181 34.8525 58.4307 35.5913C57.9591 36.3301 57.283 36.9197 56.4027 37.3599C55.5224 37.7844 54.4768 37.9966 53.2664 37.9966ZM64.5935 37.5957H61.1506V21.5367H64.5935V37.5957ZM74.6539 37.8787C73.0346 37.8787 71.604 37.525 70.362 36.8175C69.1358 36.1101 68.1847 35.1432 67.5087 33.917C66.8326 32.675 66.4947 31.2681 66.4947 29.6959C66.4947 28.4539 66.6911 27.322 67.0842 26.3002C67.4929 25.2626 68.0589 24.3743 68.7821 23.6354C69.5053 22.8808 70.362 22.2991 71.3525 21.8904C72.3587 21.4817 73.459 21.2773 74.6539 21.2773C76.4933 21.2773 78.0103 21.6704 79.2051 22.4564C80.4156 23.2267 81.3511 24.3351 82.0113 25.7814L78.875 27.0312C78.3562 26.1823 77.7509 25.5691 77.0592 25.1918C76.3675 24.7988 75.5658 24.6023 74.6539 24.6023C73.7578 24.6023 72.956 24.8145 72.2486 25.239C71.5569 25.6477 71.0066 26.2294 70.5979 26.984C70.2048 27.7386 70.0083 28.6425 70.0083 29.6959C70.0083 30.6706 70.2048 31.5353 70.5979 32.2899C71.0066 33.0287 71.5569 33.6104 72.2486 34.0349C72.956 34.4436 73.7578 34.648 74.6539 34.648C75.4871 34.648 76.226 34.4908 76.8706 34.1764C77.5151 33.862 78.0339 33.414 78.4269 32.8323C78.82 32.2349 79.0401 31.5431 79.0872 30.7571L80.0776 31.9597H74.3945V28.8705H82.2236C82.2865 29.1221 82.3337 29.3893 82.3651 29.6723C82.3965 29.9553 82.4122 30.2383 82.4122 30.5213C82.4122 31.6218 82.2 32.6278 81.7755 33.5397C81.3668 34.4358 80.8009 35.214 80.0776 35.8743C79.3702 36.5188 78.5527 37.014 77.6252 37.3599C76.6977 37.7058 75.7072 37.8787 74.6539 37.8787ZM95.0247 37.5957L86.2288 25.687L87.7144 25.2862V37.5957H84.2715V21.5367H87.4079L96.0151 33.2331L94.6946 33.469V21.5367H98.1375V37.5957H95.0247Z" fill="#E8FF66"/>
</g>
<defs>
<clipPath id="clip0_64_344">
<rect width="115.887" height="38" fill="white"/>
</clipPath>
</defs>
</svg>
